<?xml version="1.0" standalone="no"?>
<!DOCTYPE svg PUBLIC "-//W3C//DTD SVG 20010904//EN"
 "http://www.w3.org/TR/2001/REC-SVG-20010904/DTD/svg10.dtd">
<svg version="1.0" xmlns="http://www.w3.org/2000/svg"
 width="594.000000pt" height="594.000000pt" viewBox="0 0 594.000000 594.000000"
 preserveAspectRatio="xMidYMid meet">
<metadata>
Created by potrace 1.14, written by Peter Selinger 2001-2017
</metadata>
<g transform="translate(0.000000,594.000000) scale(0.100000,-0.100000)"
fill="#000000" stroke="none">
<path d="M1435 5262 c-66 -60 -106 -92 -116 -92 -5 0 -15 11 -21 25 -6 14 -14
25 -17 25 -6 0 -23 -55 -61 -198 -18 -68 -25 -80 -36 -71 -8 6 -14 15 -14 20
0 5 -12 34 -26 66 -24 54 -27 56 -37 36 -15 -34 -33 -28 -96 32 -32 30 -61 55
-64 55 -3 0 -8 -39 -9 -87 l-3 -88 -27 2 c-16 1 -28 -2 -28 -7 0 -5 20 -59 45
-119 l45 -110 -22 -56 c-13 -30 -27 -54 -32 -52 -5 2 -24 59 -43 127 -46 168
-42 160 -59 128 -8 -16 -21 -28 -28 -28 -7 0 -42 26 -77 57 -62 55 -64 56 -70
32 -4 -13 -8 -51 -8 -84 -2 -79 -10 -91 -50 -77 -17 6 -31 9 -31 6 0 -2 32
-60 71 -129 40 -69 69 -128 67 -131 -5 -4 -49 12 -145 53 -7 3 -11 -7 -10 -29
l2 -33 -87 -3 c-49 -1 -88 -6 -88 -10 0 -4 23 -30 51 -57 71 -70 76 -81 42
-99 l-27 -14 34 -14 c19 -8 88 -36 153 -63 66 -27 121 -55 124 -62 3 -7 -4
-36 -16 -63 -11 -27 -21 -51 -21 -54 0 -6 62 17 151 55 35 15 48 28 58 55 19
54 31 31 31 -63 l0 -85 -30 4 c-16 3 -30 1 -30 -2 0 -4 21 -58 46 -119 l46
-112 -22 -54 c-12 -30 -26 -55 -31 -55 -8 0 -31 70 -65 203 -19 69 -28 81 -39
48 -11 -35 -33 -31 -87 17 -29 26 -57 53 -61 59 -18 28 -26 9 -33 -78 -7 -98
-16 -111 -60 -91 -13 7 -24 10 -24 8 0 -2 32 -61 71 -130 39 -70 69 -130 65
-133 -3 -3 -38 8 -78 25 -40 16 -74 29 -76 27 -2 -2 1 -12 7 -23 17 -32 -5
-42 -96 -42 -46 0 -83 -3 -83 -7 0 -4 28 -36 63 -71 l62 -63 -24 -20 c-13 -11
-22 -21 -20 -23 2 -2 67 -30 144 -61 77 -31 144 -61 150 -66 6 -7 2 -31 -12
-70 -20 -55 -21 -60 -5 -54 137 51 175 71 190 103 9 17 18 32 22 32 12 0 74
-165 80 -212 8 -58 4 -58 -86 -22 -36 14 -68 23 -71 20 -3 -3 9 -39 26 -81 18
-41 29 -80 26 -85 -9 -15 -26 -12 -47 7 -17 15 -18 13 -18 -65 0 -45 -3 -82
-7 -82 -5 1 -48 53 -98 117 -86 111 -90 115 -93 85 -2 -16 -9 -33 -16 -35 -8
-3 -51 7 -97 23 -46 16 -84 28 -86 27 -1 -2 11 -37 27 -78 37 -93 37 -107 3
-115 -16 -3 -32 -7 -36 -7 -4 -1 44 -42 108 -91 63 -49 115 -93 115 -98 0 -4
-39 -8 -87 -8 -83 0 -85 -1 -70 -18 23 -25 21 -41 -5 -51 -13 -5 -50 -21 -83
-36 l-60 -27 82 -38 c78 -36 100 -59 73 -75 -31 -19 4 -25 148 -25 86 0 162
-4 169 -8 6 -4 13 -34 15 -67 l3 -60 73 71 c64 63 72 75 72 108 0 25 4 36 12
34 15 -5 61 -136 54 -154 -3 -7 -19 -14 -37 -16 -32 -3 -30 -5 84 -93 64 -49
117 -93 117 -97 0 -5 -39 -8 -87 -8 -85 0 -86 0 -68 -20 26 -29 14 -43 -65
-76 -39 -17 -71 -34 -71 -39 0 -4 30 -21 68 -37 84 -36 91 -43 75 -68 -6 -11
-12 -22 -12 -25 0 -3 71 -5 158 -5 110 0 162 -4 170 -12 7 -7 12 -36 12 -65 0
-29 4 -53 8 -53 4 0 34 27 67 60 l59 60 83 -82 c46 -46 83 -86 83 -90 0 -5
-72 -8 -160 -8 l-160 0 0 -50 0 -50 -197 0 -198 0 108 -108 107 -107 -107
-108 -108 -107 273 0 272 0 0 50 0 50 513 -1 c281 0 521 -4 532 -8 14 -6 -18
-15 -107 -31 l-128 -23 0 -54 c0 -29 3 -53 6 -53 3 0 132 23 286 51 l280 50
146 -26 c81 -15 205 -37 277 -50 71 -13 133 -21 137 -19 4 3 8 27 8 54 l0 49
-52 10 c-29 6 -84 16 -122 22 -45 8 -64 14 -55 20 8 5 242 9 522 9 l507 0 0
-50 0 -50 277 0 278 0 -109 109 -109 109 106 106 106 106 -197 2 -197 3 -5 49
-5 49 -152 -2 c-83 -1 -154 2 -157 7 -3 5 23 34 59 66 l64 56 78 0 c89 0 123
14 138 54 8 25 6 30 -18 48 -15 11 -27 24 -27 29 0 5 50 9 110 9 117 0 160 11
194 49 16 17 30 21 81 21 67 0 98 16 110 57 4 16 -1 26 -25 43 -17 12 -28 26
-25 31 4 5 58 9 121 9 120 0 151 8 187 48 11 12 20 35 20 53 2 29 -3 36 -41
57 -23 13 -40 28 -37 33 4 5 32 9 64 9 93 0 159 56 168 144 5 43 4 46 -23 56
-51 20 -56 29 -35 64 51 83 62 113 51 140 -5 14 -21 32 -36 38 -23 11 -34 8
-94 -25 -37 -20 -73 -37 -79 -37 -7 0 -19 16 -27 35 -13 31 -18 35 -53 35 -45
0 -96 -31 -128 -79 -18 -26 -23 -48 -23 -93 0 -69 -13 -73 -45 -15 -24 44 -50
48 -103 15 -24 -14 -33 -17 -29 -7 3 8 13 48 23 89 10 41 19 76 20 78 1 2 17
-6 35 -17 47 -29 85 -27 118 7 16 15 40 35 54 44 14 10 28 32 32 50 4 18 12
38 17 45 12 15 0 36 -17 29 -12 -4 -35 11 -35 25 0 3 21 14 48 24 68 25 84 42
80 84 -3 31 -7 37 -32 41 -54 9 -37 27 66 70 57 23 113 51 126 63 53 49 50
147 -5 147 -34 0 -73 10 -73 19 0 3 26 18 58 33 64 31 87 57 103 120 9 35 8
50 -5 81 -13 31 -21 37 -45 37 -56 0 -58 4 -48 81 11 86 5 112 -28 127 -41 19
-68 5 -116 -58 -24 -33 -48 -60 -53 -60 -6 0 -22 12 -37 26 -25 24 -28 25 -61
11 -43 -18 -75 -57 -89 -111 -11 -40 -8 -59 28 -153 8 -21 -13 -15 -46 13
l-31 26 0 139 0 140 30 -16 c44 -22 78 -19 110 13 15 15 40 36 54 47 14 11 27
32 29 46 1 15 9 34 16 42 15 19 5 41 -14 33 -8 -3 -19 2 -26 10 -10 13 -10 17
2 25 8 5 19 9 25 9 6 0 23 9 38 21 19 15 26 30 26 53 0 29 -4 34 -32 42 -17 5
-33 14 -35 20 -2 5 44 29 102 53 110 45 148 76 160 129 3 16 1 41 -4 55 -9 24
-16 27 -55 27 -65 0 -66 17 -2 45 89 39 131 120 103 200 -13 37 -17 40 -58 45
-24 3 -44 7 -43 10 1 3 4 40 8 83 8 83 2 102 -39 117 -34 12 -68 -8 -109 -65
-22 -30 -45 -55 -51 -55 -7 0 -20 9 -30 20 -23 25 -51 25 -92 0 -63 -38 -85
-119 -54 -198 12 -29 21 -55 21 -57 0 -14 -30 -2 -50 20 -13 14 -33 25 -45 25
-11 0 -28 9 -38 20 -20 24 -35 25 -65 4 -33 -23 -39 -10 -20 39 8 23 28 74 43
114 32 83 29 125 -10 167 -30 33 -55 33 -95 0 -17 -15 -34 -24 -37 -20 -4 4 1
28 10 54 35 96 9 177 -68 214 l-45 22 -31 -30 -31 -29 -26 35 c-74 97 -109
117 -151 83 -25 -21 -27 -34 -17 -124 7 -64 6 -67 -16 -73 -13 -3 -32 -6 -43
-6 -15 0 -25 -10 -33 -33 -30 -83 2 -156 91 -202 31 -16 57 -33 57 -37 0 -4
-17 -10 -37 -13 -58 -10 -62 -12 -69 -40 -18 -71 28 -120 164 -176 56 -23 102
-45 102 -50 0 -5 -15 -12 -32 -17 -44 -11 -60 -52 -32 -83 10 -12 36 -28 57
-36 30 -12 35 -18 26 -29 -6 -8 -20 -14 -30 -14 -20 0 -26 -24 -9 -35 6 -3 10
-18 10 -31 0 -15 12 -36 29 -52 75 -68 93 -82 106 -82 24 0 69 20 91 41 38 36
49 5 52 -158 2 -78 1 -143 -3 -143 -3 0 -16 5 -27 11 -17 9 -25 6 -53 -21 -44
-42 -59 -32 -35 23 44 97 9 199 -77 228 -32 10 -37 9 -65 -17 l-29 -29 -22 30
c-75 103 -123 128 -161 86 -21 -23 -23 -43 -12 -128 l8 -63 -42 0 c-37 0 -42
-3 -56 -35 -21 -50 -17 -93 12 -143 20 -34 38 -49 80 -68 30 -13 54 -28 54
-33 0 -4 -21 -11 -46 -14 -52 -5 -64 -17 -64 -63 0 -61 36 -95 153 -145 60
-26 111 -49 114 -53 3 -3 -11 -13 -31 -21 -20 -9 -40 -23 -43 -31 -11 -28 16
-65 63 -85 37 -17 43 -23 33 -35 -6 -8 -20 -14 -30 -14 -25 0 -32 -15 -14 -30
8 -7 15 -25 15 -39 0 -27 36 -71 57 -71 6 0 20 -11 30 -24 28 -38 77 -38 121
-1 38 32 47 31 62 -5 12 -30 10 -78 -13 -235 l-11 -80 -7 54 c-5 41 -14 61
-39 86 -32 33 -33 33 -72 19 -30 -10 -40 -11 -43 -1 -2 7 -11 39 -20 72 -19
70 -39 95 -72 95 -44 0 -62 -18 -78 -78 -29 -104 -29 -104 -71 -86 -36 15 -38
15 -66 -14 -62 -61 -56 -157 15 -229 22 -24 38 -46 34 -49 -3 -4 -26 -1 -51 6
-52 14 -63 9 -82 -37 -24 -57 -6 -97 86 -188 89 -89 99 -111 46 -101 -29 6
-37 3 -50 -16 -24 -34 -20 -54 19 -97 33 -36 35 -43 35 -105 0 -70 -10 -81
-36 -41 -21 33 -57 32 -83 -1 -19 -24 -21 -40 -21 -170 l0 -143 -84 -71 -85
-71 -1018 0 c-560 1 -1021 1 -1026 1 -23 0 -307 271 -307 293 0 4 19 7 43 7
39 0 48 5 110 68 37 37 67 71 67 75 0 4 -24 7 -53 7 -29 0 -58 5 -65 12 -8 8
-12 60 -12 170 0 87 -2 158 -5 158 -3 0 -14 -6 -25 -12 -26 -16 -34 -8 -70 78
-16 38 -32 68 -36 67 -4 -1 -20 -32 -36 -70 -36 -84 -43 -91 -68 -75 -11 6
-22 12 -25 12 -3 0 -5 -36 -5 -80 0 -44 -3 -80 -8 -80 -4 0 -26 24 -50 54
l-42 54 0 136 c0 75 4 136 8 136 5 0 17 -9 27 -20 16 -18 31 -20 129 -20 l110
0 -42 43 c-23 23 -42 49 -42 58 0 8 50 64 110 124 61 60 110 113 110 117 0 5
-11 8 -25 8 -33 0 -32 17 5 104 16 38 28 72 25 74 -2 2 -39 -9 -82 -26 -82
-31 -103 -29 -103 11 0 17 -11 10 -60 -38 -33 -32 -62 -57 -65 -54 -2 3 3 69
13 147 10 78 17 142 15 142 -2 0 -15 -7 -29 -16 -32 -21 -37 -16 -84 83 l-37
77 -41 -87 c-22 -48 -46 -87 -53 -87 -7 0 -23 10 -36 22 -13 12 -23 17 -23 12
1 -5 9 -70 19 -144 10 -74 16 -139 13 -144 -3 -5 -13 1 -24 13 -16 20 -18 43
-18 178 l0 154 50 21 c27 11 50 23 50 27 0 3 -23 16 -50 28 -59 26 -61 35 -23
125 35 83 39 86 54 45 11 -31 21 -39 100 -71 49 -20 93 -36 98 -36 6 0 1 21
-9 46 -34 78 -41 71 150 149 63 25 119 50 124 55 4 4 -1 13 -13 19 -12 7 -21
15 -21 20 0 4 27 37 60 73 l59 66 -82 4 c-97 5 -112 11 -96 39 19 37 11 35
-138 -28 -24 -10 -13 14 57 137 39 68 69 125 67 127 -2 2 -16 -1 -29 -6 -37
-14 -48 3 -48 79 0 117 -2 119 -78 50 -35 -33 -71 -60 -78 -60 -7 0 -20 12
-28 28 -17 32 -14 38 -57 -118 -17 -63 -35 -122 -39 -130 -13 -23 -72 113 -78
178 l-5 53 52 21 c28 12 51 24 51 27 0 4 -24 17 -53 31 -61 30 -62 35 -16 136
l32 69 14 -36 c13 -32 24 -39 104 -72 50 -21 94 -37 99 -37 5 0 -1 23 -12 51
-15 36 -19 56 -12 67 6 8 74 42 152 75 78 33 142 63 142 68 0 4 -9 11 -20 14
-32 10 -24 26 40 90 32 32 57 62 54 67 -3 4 -43 8 -89 8 -46 0 -87 4 -90 10
-3 5 -1 19 5 30 15 27 -1 26 -68 -5 -53 -24 -82 -31 -82 -19 0 6 85 160 122
222 l20 33 -40 -7 -39 -6 -9 96 -9 96 -30 -28z m2873 -73 c19 -22 39 -57 44
-77 6 -20 13 -31 15 -24 3 6 15 12 28 12 13 0 37 11 53 25 l30 25 25 -20 c14
-11 31 -36 37 -54 9 -29 7 -43 -14 -96 -26 -64 -25 -79 10 -114 14 -14 18 -14
47 0 18 9 40 24 50 33 17 15 20 14 33 -4 8 -10 14 -31 14 -46 0 -29 -48 -149
-59 -149 -8 0 -11 -19 -14 -85 -2 -38 2 -50 13 -51 8 -1 26 -3 40 -4 23 -1 24
-2 5 -11 -17 -8 -16 -8 7 -4 15 3 29 1 33 -5 7 -12 -38 -102 -51 -101 -5 0 -8
-13 -8 -29 2 -35 -1 -37 -16 -11 -7 15 -5 31 11 67 19 46 19 49 3 61 -10 7
-30 13 -45 13 -24 0 -30 6 -38 36 -12 42 10 100 32 88 9 -5 9 -4 1 5 -9 10 -7
26 8 64 29 74 28 91 -2 95 -21 2 -28 -3 -38 -33 -8 -21 -20 -35 -30 -35 -13 0
-14 -2 -4 -9 12 -7 12 -13 0 -35 l-14 -28 -37 87 c-36 86 -36 86 -21 133 9 26
20 52 24 57 4 6 10 22 14 38 5 20 3 27 -8 27 -8 0 -21 3 -29 6 -9 3 -16 -3
-20 -15 -3 -14 -10 -19 -21 -15 -11 4 -16 1 -16 -11 0 -9 5 -13 10 -10 12 7
12 3 4 -20 -5 -11 -16 7 -38 57 -24 56 -36 74 -54 76 -27 4 -36 -16 -23 -49 5
-13 18 -48 30 -77 l21 -52 -30 15 c-38 20 -76 19 -84 -2 -9 -22 -2 -28 77 -60
l68 -28 34 -80 c38 -86 34 -105 -16 -80 -38 20 -109 30 -110 16 -1 -6 -2 -16
-3 -22 -1 -10 146 -79 169 -79 18 0 48 -37 40 -49 -3 -6 -2 -11 3 -11 7 0 32
-42 32 -55 0 -2 -9 -1 -20 2 -13 3 -22 -1 -26 -12 -10 -24 7 -48 36 -50 36 -3
80 -65 46 -65 -20 0 -176 72 -176 82 0 4 15 11 33 16 29 7 32 12 35 49 3 47
10 42 -135 99 -90 36 -105 47 -108 78 -2 14 -6 30 -10 35 -4 7 7 11 28 11 39
0 87 33 87 59 0 22 -24 43 -70 62 -47 18 -92 59 -85 77 3 8 0 21 -6 28 -6 8
-8 25 -5 39 5 20 12 25 40 25 20 0 40 8 51 20 18 20 18 44 -1 153 -6 32 -4 37
12 37 11 0 34 -18 52 -41z m-2868 -80 c6 -21 17 -39 24 -42 11 -5 2 -29 -41
-107 -41 -75 -54 -106 -49 -125 9 -34 43 -40 98 -16 46 19 46 19 64 0 13 -14
30 -19 72 -19 l54 0 -36 -40 c-23 -26 -36 -50 -36 -68 0 -26 -7 -31 -117 -76
-128 -53 -156 -75 -149 -118 5 -26 4 -27 -20 -18 -14 6 -33 14 -42 19 -20 11
-49 83 -36 88 79 29 258 110 261 118 1 6 -1 16 -6 24 -8 12 -67 -7 -228 -76
-22 -9 -15 12 63 199 58 140 72 183 62 189 -23 15 -38 10 -48 -16 -5 -14 -18
-44 -28 -68 -10 -23 -41 -95 -67 -159 -27 -65 -52 -118 -55 -118 -4 0 -27 51
-52 113 -40 99 -47 112 -69 112 -34 0 -30 -18 35 -169 l54 -128 -34 -14 c-42
-18 -43 -17 -90 2 -32 14 -36 18 -23 28 9 6 21 21 28 34 14 27 8 51 -50 185
-38 87 -38 88 -18 108 10 10 19 32 19 48 0 58 8 63 53 30 22 -16 48 -28 56
-26 11 2 25 -14 41 -48 20 -40 31 -51 53 -53 16 -2 34 1 41 7 8 6 26 59 41
116 27 100 29 105 55 105 16 0 42 14 66 34 l39 34 3 -27 c1 -14 7 -42 12 -62z
m-720 -249 c19 -17 46 -30 61 -30 24 0 28 -6 48 -77 42 -149 40 -145 109 -173
72 -29 72 -25 19 -142 l-33 -73 -20 48 c-69 171 -140 331 -149 334 -5 1 -16
-1 -24 -6 -15 -10 1 -59 95 -278 29 -68 51 -123 50 -123 -2 0 -50 20 -107 44
-145 60 -146 61 -158 37 -12 -22 -4 -27 173 -97 50 -20 95 -40 99 -44 5 -4 0
-24 -10 -45 -13 -28 -28 -42 -55 -51 l-38 -13 0 28 c0 44 -26 65 -130 106
-141 56 -137 54 -132 80 3 16 -7 35 -32 63 l-36 40 56 4 c37 3 61 11 69 21 11
16 15 16 57 1 26 -10 55 -14 71 -10 46 11 43 39 -18 146 l-56 99 20 20 c16 16
21 34 21 71 0 28 3 50 8 50 4 -1 23 -14 42 -30z m4474 -15 c3 -8 2 -15 -2 -15
-12 0 -14 -151 -1 -166 6 -8 29 -14 50 -14 35 0 39 -3 44 -33 12 -62 -15 -98
-106 -145 -61 -31 -73 -58 -40 -91 14 -14 34 -21 61 -21 41 0 50 -13 34 -54
-9 -22 -72 -59 -90 -52 -8 3 -13 2 -10 -3 6 -8 -81 -51 -104 -51 -6 0 -22 -11
-35 -24 -36 -36 -16 -96 32 -96 35 0 24 -18 -25 -40 -37 -17 -42 -17 -42 -3 0
11 -7 14 -27 9 -27 -6 -27 -6 -8 9 43 31 46 36 36 49 -6 7 -8 16 -4 20 4 4 0
4 -9 1 -26 -10 -30 12 -10 51 17 33 32 43 118 80 54 23 99 46 101 50 1 5 -1
15 -6 23 -8 12 -16 12 -58 1 -26 -7 -57 -19 -68 -27 -36 -24 -47 -16 -28 20 9
17 17 34 18 37 0 3 11 31 23 61 19 44 30 58 57 68 18 6 41 9 51 5 16 -5 17 -4
4 6 -13 10 -11 11 8 7 13 -3 20 -1 16 5 -3 5 3 12 15 15 24 6 27 25 7 42 -15
13 -61 6 -84 -12 -7 -5 -15 -7 -19 -3 -3 3 -2 6 4 6 6 0 11 10 11 23 0 12 10
44 21 71 24 55 22 76 -9 76 -15 0 -26 -14 -45 -57 -47 -108 -41 -103 -61 -55
-17 41 -34 51 -62 34 -7 -5 -10 -16 -6 -25 3 -10 1 -17 -5 -17 -6 0 -11 5 -11
11 0 6 -7 9 -14 6 -20 -8 -27 20 -17 64 16 68 68 102 91 59 16 -30 64 -26 100
9 17 15 30 31 30 35 0 14 44 66 56 66 6 0 14 -7 18 -15z m-245 -245 c5 0 18
-25 29 -56 l22 -55 -27 -70 c-15 -38 -33 -69 -40 -69 -7 0 -13 -6 -13 -12 0
-7 -13 15 -29 49 -33 76 -34 77 -60 68 -21 -6 -29 -39 -12 -50 5 -3 13 -20 17
-37 3 -18 10 -39 15 -48 33 -60 38 -89 22 -135 -15 -47 -27 -56 -37 -30 -3 8
-16 15 -29 15 -19 0 -24 -5 -22 -22 2 -13 6 -31 10 -40 4 -11 3 -18 -4 -18 -6
0 -11 -5 -11 -10 0 -6 3 -9 8 -9 18 3 32 -2 32 -11 0 -5 -8 -10 -19 -10 -13 0
-28 18 -46 55 -24 47 -26 57 -14 72 12 15 12 16 -3 10 -12 -4 -18 -1 -18 9 0
10 5 12 12 7 7 -4 33 -10 58 -13 l45 -6 1 58 c0 31 -3 55 -6 53 -4 -3 -15 14
-24 37 -12 33 -13 44 -3 50 9 5 7 8 -5 8 -10 0 -23 16 -33 44 -16 40 -16 46
-1 75 14 27 20 30 37 21 11 -6 17 -15 15 -19 -3 -4 0 -8 7 -9 7 -1 25 -4 40
-8 20 -5 33 -1 47 11 21 19 27 69 10 80 -16 10 -11 28 6 21 9 -3 19 -6 23 -6z
m-233 -47 c-10 -10 -19 5 -10 18 6 11 8 11 12 0 2 -7 1 -15 -2 -18z m-3602
-40 c-52 -122 -55 -153 -18 -182 l27 -21 -38 -16 c-37 -15 -85 -13 -113 4 -9
6 -1 36 34 120 39 92 51 112 68 112 12 0 28 5 36 10 22 14 22 14 4 -27z m3486
13 c0 -3 -4 -8 -10 -11 -5 -3 -10 -1 -10 4 0 6 5 11 10 11 6 0 10 -2 10 -4z
m161 -209 c17 -43 29 -80 26 -83 -3 -3 -19 2 -36 11 -23 11 -36 13 -50 6 -16
-9 -21 -6 -30 17 -9 22 -8 36 5 67 9 22 21 51 26 65 11 30 16 24 59 -83z
m-223 -2 c6 -5 -33 -95 -42 -95 -18 0 -46 33 -46 56 0 38 58 64 88 39z m85
-38 c11 -34 -9 -76 -45 -96 -15 -9 -29 -13 -32 -10 -9 9 47 140 58 136 5 -2
14 -15 19 -30z m-3159 -133 c14 -10 10 -22 -39 -108 -30 -54 -55 -104 -55
-111 0 -21 29 -45 53 -45 12 0 35 7 51 15 35 19 45 19 65 1 9 -8 38 -18 64
-23 l47 -8 -29 -36 c-16 -19 -31 -48 -33 -63 -3 -26 -12 -32 -113 -73 -118
-48 -160 -80 -152 -119 4 -23 3 -23 -31 -9 -19 8 -36 15 -38 15 -4 0 -34 69
-34 79 0 3 28 17 63 30 153 59 207 85 207 103 0 32 -40 22 -222 -56 -38 -16
-38 -16 -29 6 5 13 41 99 80 191 39 93 71 173 71 177 0 10 -39 24 -46 17 -7
-6 -99 -225 -131 -310 -14 -37 -28 -65 -32 -62 -3 4 -26 57 -51 118 -45 108
-60 127 -88 108 -13 -8 16 -89 88 -246 10 -22 16 -43 14 -47 -3 -4 -22 -13
-42 -19 -31 -9 -45 -8 -75 5 l-37 15 25 25 c14 14 25 33 25 44 0 10 -22 72
-49 139 -45 113 -47 121 -30 131 12 8 21 29 25 62 l6 49 37 -29 c19 -17 46
-30 59 -30 18 0 28 -10 43 -46 11 -25 31 -50 44 -56 42 -19 58 2 90 119 29
104 32 108 60 111 16 2 45 17 64 33 l36 29 11 -57 c7 -31 19 -62 28 -69z
m-456 72 c3 -27 2 -28 -13 -16 -9 7 -21 22 -26 32 -9 17 -7 19 13 16 17 -2 24
-10 26 -32z m72 -27 c0 -61 -23 -64 -28 -4 -3 32 7 54 26 55 1 0 2 -23 2 -51z
m3216 -66 c68 -89 75 -95 119 -89 22 4 50 8 62 9 16 1 19 5 11 15 -8 9 -7 11
6 6 21 -8 47 -63 48 -100 0 -16 -9 -51 -20 -79 -15 -38 -17 -55 -9 -72 9 -21
16 -23 84 -20 70 2 73 3 54 18 -17 14 -18 18 -6 23 32 12 49 -88 20 -117 -8
-8 -11 -17 -8 -21 3 -3 1 -11 -4 -18 -5 -7 -18 -35 -28 -63 -10 -27 -22 -54
-26 -59 -16 -18 -9 -45 16 -62 23 -15 42 -15 85 -2 8 3 11 3 6 0 -4 -2 -4 -7
2 -11 6 -4 0 -25 -14 -56 -14 -27 -30 -67 -36 -87 -6 -21 -15 -35 -20 -32 -5
3 -7 12 -4 19 3 8 0 15 -6 17 -6 2 -4 17 6 42 21 51 20 63 -5 71 -13 5 -25 1
-33 -10 -10 -14 -14 -9 -30 34 -14 39 -15 54 -6 71 6 11 14 18 19 16 4 -3 8
12 8 33 0 20 10 56 22 79 28 54 27 69 -6 75 -28 5 -59 -15 -48 -32 3 -5 -5
-33 -18 -61 l-24 -52 -14 34 c-7 18 -14 35 -14 38 0 3 -7 15 -14 28 -7 13 -10
30 -7 38 3 8 1 14 -5 14 -6 0 -8 7 -5 16 3 8 2 12 -4 9 -6 -3 -10 1 -10 9 0 9
5 16 10 16 6 0 10 9 10 19 0 11 9 40 19 64 21 50 19 57 -16 57 -18 0 -28 -10
-42 -42 l-18 -43 -14 45 c-7 25 -19 51 -27 59 -7 7 -11 18 -9 25 5 16 -18 36
-41 36 -31 0 -31 -18 0 -94 33 -80 27 -98 -22 -70 -31 19 -32 19 -46 0 -19
-27 -18 -37 6 -43 11 -3 20 -9 20 -14 0 -5 7 -5 17 -2 10 4 14 2 10 -4 -8 -13
18 -24 38 -17 8 4 17 -1 21 -10 3 -9 10 -13 15 -10 13 7 40 -61 33 -80 -3 -9
-1 -16 5 -16 12 0 55 -79 47 -87 -2 -3 -17 2 -33 10 -59 31 -113 49 -128 43
-25 -9 -15 -48 15 -56 14 -4 59 -22 102 -39 69 -29 78 -36 92 -72 21 -51 20
-59 -4 -59 -14 0 -20 -7 -20 -24 0 -13 -6 -26 -12 -29 -7 -2 -10 -8 -5 -12 4
-5 12 -4 19 3 19 19 97 -21 98 -50 0 -15 -39 -7 -110 21 -75 31 -92 41 -75 48
45 17 60 31 65 64 6 33 4 36 -29 52 -68 31 -126 55 -164 68 -34 12 -71 49 -50
49 4 0 2 4 -6 9 -8 5 -11 16 -6 30 3 12 11 19 16 15 15 -9 78 16 89 36 21 40
12 57 -41 76 -28 10 -66 34 -85 52 -30 30 -35 39 -32 75 3 41 4 41 53 52 l50
10 -4 103 c-2 63 1 102 7 102 5 0 22 -17 38 -37z m514 -92 c0 -6 -4 -13 -10
-16 -5 -3 -10 1 -10 9 0 9 5 16 10 16 6 0 10 -4 10 -9z m129 -7 c7 -6 -2 -12
-42 -29 -39 -16 -46 -10 -27 26 8 15 17 18 38 13 15 -4 29 -8 31 -10z m-179
-276 c0 -176 -2 -207 -14 -202 -12 5 -15 45 -15 232 0 200 2 224 14 202 11
-19 14 -74 15 -232z m-3975 154 c23 -6 31 -17 41 -52 51 -179 39 -159 110
-191 35 -16 64 -34 64 -39 0 -5 -11 -35 -25 -67 -14 -32 -31 -70 -38 -85 -12
-27 -14 -24 -61 95 -86 215 -107 257 -127 257 -10 0 -20 -4 -24 -9 -3 -6 30
-96 74 -200 43 -105 77 -191 74 -191 -3 0 -60 23 -126 51 -114 48 -122 50
-134 33 -7 -10 -10 -21 -6 -25 5 -4 70 -33 146 -64 75 -32 137 -59 137 -60 0
-1 -7 -18 -15 -38 -9 -21 -27 -42 -46 -51 -44 -22 -49 -20 -49 14 0 44 -24 62
-148 111 -105 41 -112 46 -112 71 0 18 -13 43 -36 68 l-36 40 51 0 c38 0 56 5
71 20 20 20 20 20 70 0 38 -15 56 -17 70 -10 38 20 34 47 -23 147 l-55 96 18
26 c10 14 21 47 25 73 l6 48 38 -30 c21 -17 51 -34 66 -38z m4183 36 c20 -20
14 -65 -10 -83 -22 -15 -24 -14 -45 32 -17 35 -19 49 -10 55 18 12 51 10 65
-4z m-84 -115 c11 -33 -27 -31 -53 3 -24 30 -27 65 -9 97 11 21 13 19 33 -28
12 -27 25 -60 29 -72z m301 -138 c-7 -44 -11 -83 -9 -86 2 -4 -4 -6 -13 -5 -9
0 -17 -3 -19 -9 -2 -6 23 -11 62 -12 37 -1 69 -4 71 -7 12 -11 13 -68 2 -88
-19 -35 -58 -68 -89 -75 -35 -7 -70 -38 -70 -62 0 -27 30 -49 78 -57 35 -5 42
-10 42 -29 0 -36 -42 -67 -137 -104 -48 -19 -94 -39 -100 -44 -7 -5 -13 -6
-14 -1 0 5 -5 -4 -10 -21 -11 -36 10 -72 47 -81 13 -4 23 -11 21 -17 -4 -14
-181 -87 -185 -77 -7 19 21 52 59 66 30 13 39 22 39 40 0 19 -5 24 -24 24
l-24 0 17 46 c11 27 27 50 43 58 41 22 141 59 163 61 24 2 32 37 12 54 -11 8
-22 9 -41 1 -18 -6 -25 -6 -21 0 3 6 -1 10 -10 10 -11 0 -15 -5 -11 -16 3 -8
2 -12 -4 -9 -6 3 -10 2 -10 -3 0 -10 -60 -35 -67 -29 -3 3 55 139 76 177 4 8
40 26 79 40 62 22 71 28 66 45 -10 31 -24 34 -68 15 -22 -11 -42 -18 -43 -16
-5 5 60 161 69 164 4 2 8 11 8 19 0 13 -3 13 -15 3 -8 -7 -22 -10 -30 -6 -19
7 -48 -37 -72 -109 l-16 -49 -21 42 c-15 31 -26 42 -42 42 -34 0 -36 -13 -14
-65 24 -57 25 -64 3 -61 -10 2 -21 -2 -25 -8 -5 -6 -8 -2 -8 10 0 12 -9 44
-21 71 -17 43 -19 56 -10 91 7 23 23 50 39 62 l27 21 16 -20 c10 -12 22 -21
29 -21 6 0 9 -4 6 -8 -3 -5 8 -9 25 -9 19 0 25 3 17 9 -9 5 -9 8 -1 8 6 0 35
30 63 66 44 55 54 64 65 53 11 -12 11 -28 0 -94z m-495 -100 c0 -32 -5 -47
-15 -52 -9 -3 -19 -3 -22 1 -6 6 25 96 33 96 2 0 4 -20 4 -45z m-3569 13 c-5
-13 -19 -45 -30 -71 -27 -63 -26 -89 3 -119 l25 -24 -42 -16 c-38 -14 -47 -14
-79 -1 l-36 14 46 115 c25 63 51 113 56 111 6 -2 20 -1 31 4 32 12 35 10 26
-13z m3684 -158 c-5 -8 62 -25 80 -21 6 2 23 3 39 3 16 -1 38 4 49 10 18 9 19
7 14 -29 -7 -51 -47 -143 -63 -143 -7 0 -23 27 -36 60 -18 48 -27 60 -45 60
-12 0 -25 -5 -28 -10 -4 -6 12 -57 34 -114 l41 -103 -17 -48 c-13 -39 -18 -45
-27 -33 -7 10 -22 14 -43 11 l-31 -5 25 -54 c20 -44 22 -57 12 -75 -11 -21
-13 -19 -40 41 -16 34 -29 69 -29 76 0 7 -4 16 -10 19 -5 3 -10 12 -10 20 0
11 11 13 50 8 46 -5 50 -4 61 20 12 27 -1 78 -55 202 -25 59 -25 86 -2 110 12
13 39 8 31 -5z m-3811 -116 c12 -4 16 -19 15 -53 l0 -46 -19 40 c-27 59 -27
71 4 59z m86 -130 c0 -102 -2 -115 -15 -104 -12 10 -15 36 -15 116 0 86 3 104
15 104 12 0 15 -20 15 -116z m220 89 c19 -39 51 -73 67 -73 15 0 16 -13 2
-105 -19 -137 -15 -155 42 -155 16 0 37 13 58 34 29 30 37 33 56 24 18 -8 35
-6 70 5 44 15 46 15 40 -1 -4 -9 -9 -43 -10 -75 l-2 -58 -85 -87 c-90 -92
-106 -119 -89 -151 16 -29 15 -31 -31 -31 -32 0 -49 6 -70 27 l-28 27 106 107
c93 93 106 110 95 123 -8 9 -19 16 -25 16 -6 0 -49 -39 -96 -86 l-85 -86 -3
206 -2 206 -25 0 -25 0 0 -212 0 -213 -100 100 c-95 94 -101 99 -117 82 -17
-16 -12 -23 91 -126 l109 -109 -24 -31 c-21 -26 -31 -30 -74 -30 -38 -1 -46 2
-37 11 7 7 12 26 12 42 0 25 -17 49 -96 130 -69 70 -93 101 -85 109 15 15 14
48 -4 91 -8 20 -14 36 -12 36 2 0 24 -7 50 -16 34 -11 51 -13 66 -5 16 9 25 5
55 -24 24 -23 46 -35 65 -35 48 0 56 19 42 113 -16 120 -15 141 11 152 12 6
31 29 43 52 11 23 23 42 26 43 3 0 12 -12 19 -27z m3460 -85 c0 -20 -4 -26
-15 -22 -11 5 -15 21 -14 58 l1 51 13 -30 c8 -16 14 -42 15 -57z m-72 -5 l-4
-28 -12 28 c-9 20 -9 34 0 55 l12 27 4 -27 c2 -16 2 -40 0 -55z m-160 49 c10
-7 9 -18 -7 -55 -22 -52 -26 -54 -53 -30 -46 42 7 118 60 85z m90 -46 c6 -46
-7 -75 -39 -92 -17 -8 -33 -14 -35 -11 -4 4 8 41 35 110 14 35 35 31 39 -7z
m-206 -185 c-1 -18 2 -30 7 -27 4 3 16 -19 26 -49 9 -30 21 -58 27 -61 18 -11
68 -15 68 -6 0 6 7 13 16 16 8 3 12 2 9 -3 -3 -5 4 -12 15 -16 16 -5 20 -15
20 -51 0 -25 -5 -55 -12 -67 -12 -24 -48 -53 -60 -49 -5 1 -8 -4 -8 -12 0 -7
-7 -19 -15 -26 -13 -11 -12 -16 5 -40 11 -15 17 -30 13 -33 -7 -7 48 -3 95 8
l33 8 -3 -39 c-2 -33 -7 -40 -27 -42 -15 -3 -30 3 -37 13 -10 14 -21 16 -49
11 -19 -4 -33 -11 -30 -16 3 -5 -12 -24 -32 -44 l-38 -36 -3 97 -3 97 38 38
c21 20 44 37 51 38 7 0 10 5 7 10 -3 6 -1 10 4 10 19 0 12 29 -10 40 -22 12
-37 5 -71 -35 -17 -19 -17 -17 -18 68 l0 87 -30 0 c-33 0 -35 -7 -30 -117 1
-29 -2 -53 -6 -53 -4 0 -19 14 -34 31 -20 25 -31 30 -48 25 -33 -11 -27 -40
18 -82 21 -20 36 -42 33 -47 -3 -6 -1 -7 4 -4 22 14 30 -21 30 -116 l0 -99
-59 59 c-48 47 -61 56 -75 47 -30 -19 -25 -30 42 -94 36 -35 65 -67 65 -71 0
-3 -8 -9 -19 -12 -13 -3 -37 14 -83 62 -83 85 -101 112 -93 144 6 24 9 25 61
20 93 -10 113 37 44 105 -44 43 -67 97 -49 118 6 7 8 18 4 24 -4 6 1 20 10 30
14 15 21 17 40 8 25 -11 99 -2 91 11 -5 8 14 87 33 134 15 38 37 29 33 -12z
m324 -161 c-6 -64 -34 -210 -43 -220 -2 -2 -8 2 -12 9 -5 7 -3 36 5 64 7 29
19 96 25 150 9 73 15 94 22 81 5 -9 7 -46 3 -84z m-4151 69 c29 -7 49 -8 61
-1 14 8 29 -5 88 -79 56 -71 76 -89 96 -89 37 0 50 18 50 69 l0 45 35 -34 35
-34 0 -130 0 -131 -145 145 c-79 80 -151 146 -160 148 -8 2 -18 -4 -21 -13 -5
-12 32 -56 142 -166 l148 -148 -139 -3 c-132 -3 -140 -4 -140 -23 0 -19 8 -20
158 -23 l157 -3 0 -37 c0 -30 -7 -45 -35 -72 -26 -25 -35 -29 -35 -17 0 9 -10
25 -22 37 -20 18 -35 20 -155 20 -108 0 -133 3 -133 14 0 19 -55 64 -87 72
-24 6 -23 8 23 33 27 14 53 36 59 49 8 18 18 22 59 22 53 0 86 20 86 51 0 16
-94 100 -168 150 -15 11 -20 19 -13 23 15 10 14 56 -4 106 -14 38 -13 42 1 36
9 -4 36 -11 59 -17z m4361 -84 c15 -23 15 -27 0 -50 -9 -14 -23 -25 -32 -25
-20 0 -56 82 -40 92 23 15 56 7 72 -17z m-103 -62 c26 -61 26 -63 6 -63 -49 0
-84 73 -58 122 13 25 19 19 52 -59z m-205 -88 c-9 -28 -21 -42 -40 -49 -42
-15 -44 0 -5 43 19 21 39 49 43 62 8 22 8 23 12 4 1 -12 -3 -39 -10 -60z
m-3578 -20 c0 -12 -13 -34 -30 -50 l-30 -29 0 79 0 79 30 -29 c17 -16 30 -38
30 -50z m4000 -20 c7 -22 19 -37 33 -40 31 -7 86 -2 84 8 -1 5 19 20 46 35 69
38 79 21 33 -62 -20 -36 -36 -75 -36 -87 0 -28 27 -59 52 -59 25 0 24 -44 -2
-70 -11 -11 -19 -23 -17 -27 1 -5 -10 -9 -26 -11 -15 -2 -25 -8 -22 -13 4 -5
-20 -9 -55 -9 -44 0 -59 3 -54 12 4 7 3 8 -5 4 -6 -4 -9 -11 -6 -16 3 -4 -1
-10 -9 -13 -17 -7 -27 -77 -11 -77 6 0 26 -12 44 -27 l33 -28 -27 -25 c-24
-23 -35 -25 -136 -28 l-109 -4 11 26 c11 24 17 25 93 28 73 3 81 5 81 23 0 18
-8 20 -77 23 -43 2 -78 5 -78 7 0 17 17 38 37 46 13 5 22 13 18 18 -3 6 10 26
30 45 34 34 38 35 117 38 77 3 83 5 86 26 3 21 0 22 -56 22 l-60 0 65 65 c36
35 70 62 74 59 5 -3 9 -3 9 0 0 10 -75 56 -90 56 -13 -1 -13 -2 1 -13 14 -11
10 -18 -37 -65 l-54 -52 0 43 c0 29 -6 48 -18 58 -29 25 -42 0 -42 -83 0 -82
-14 -112 -55 -122 -15 -4 -25 -13 -25 -25 0 -23 -41 -61 -47 -43 -3 6 -9 10
-14 6 -5 -3 -2 11 8 30 10 21 24 36 34 36 13 0 17 8 17 28 0 15 9 45 21 67 13
24 21 59 22 90 1 57 24 104 60 122 37 19 47 16 59 -22z m-3790 -126 c0 -58 -4
-98 -9 -94 -5 3 -19 35 -31 71 l-22 66 28 29 c15 16 29 29 31 29 2 0 3 -45 3
-101z m-160 11 c-25 -21 -46 -29 -72 -30 -36 0 -38 2 -38 30 l0 30 72 0 72 0
-34 -30z m3690 -7 c0 -5 -12 -13 -26 -20 -26 -12 -26 -12 -9 7 18 20 35 26 35
13z m-3616 -25 c3 -13 5 -36 5 -53 l-1 -30 -13 30 c-16 34 -19 75 -6 75 5 0
11 -10 15 -22z m-50 -61 c6 -15 7 -29 5 -32 -6 -6 -87 24 -108 39 -11 9 -4 12
30 17 59 8 63 7 73 -24z m3489 -14 c9 -27 16 -42 16 -35 1 8 8 11 19 8 12 -4
49 9 95 33 99 53 112 41 57 -50 -39 -64 -49 -102 -29 -114 6 -4 8 -14 5 -22
-4 -11 -2 -13 9 -9 28 10 45 -5 45 -40 0 -50 -46 -80 -135 -89 -78 -8 -95 -17
-95 -50 0 -22 45 -79 64 -81 6 -1 15 -2 19 -3 17 -2 -15 -41 -34 -41 -11 0
-18 -4 -15 -9 10 -16 -23 -21 -139 -21 -90 0 -117 -3 -129 -16 -23 -23 -20
-51 9 -76 14 -12 25 -25 25 -30 0 -4 -51 -8 -112 -8 l-113 0 25 20 c14 11 36
20 50 20 20 0 22 -2 10 -10 -13 -8 -12 -10 3 -10 9 0 17 5 17 10 0 6 14 10 31
10 22 0 28 4 22 13 -4 6 -8 19 -8 27 0 8 -10 16 -23 18 -26 4 -20 22 7 22 10
0 25 8 32 17 12 15 12 16 -5 9 -19 -7 -19 -6 -1 14 16 18 30 20 136 20 122 0
136 5 117 42 -7 14 -21 17 -80 16 -48 -1 -73 2 -76 10 -2 7 6 12 17 12 12 0
21 6 21 14 0 8 21 35 48 60 36 36 53 46 72 42 24 -4 126 11 143 21 4 2 2 13
-3 23 -9 17 -18 19 -56 13 -44 -6 -46 -5 -35 13 6 10 31 39 56 64 51 51 53 59
25 85 -12 11 -20 13 -20 6 0 -7 -4 -9 -10 -6 -5 3 -10 1 -10 -5 0 -7 -21 -31
-47 -55 l-48 -43 -5 46 c-4 42 -8 47 -32 50 l-28 3 0 -92 c0 -72 -3 -90 -12
-81 -17 17 -33 15 -19 -2 9 -11 -1 -26 -49 -74 l-60 -61 0 78 c0 84 5 94 53
106 36 9 47 32 47 94 0 62 12 90 53 119 48 33 62 29 80 -25z m-3023 -91 l30
-17 0 -136 c0 -134 0 -137 25 -153 13 -9 31 -16 39 -16 10 0 4 -12 -18 -35
-28 -29 -42 -35 -75 -35 l-41 0 0 150 0 150 -25 0 -25 0 0 -132 0 -133 -149
149 c-106 106 -154 147 -165 143 -9 -4 -16 -12 -16 -19 0 -7 65 -78 145 -158
l145 -145 -137 -5 c-130 -5 -138 -6 -138 -25 0 -19 8 -20 158 -23 l157 -3 0
-43 c0 -36 -5 -47 -32 -70 -31 -25 -33 -25 -39 -7 -16 42 -46 51 -180 51 -124
0 -126 0 -137 25 -6 13 -32 35 -58 48 l-47 24 34 12 c38 13 79 48 79 68 0 9
16 13 53 13 60 0 94 23 83 57 -3 11 -44 49 -91 86 -81 64 -84 67 -78 101 3 20
-1 54 -10 79 l-15 45 45 -15 c25 -9 59 -13 78 -10 32 5 36 2 95 -74 73 -94 92
-107 126 -84 20 13 24 23 24 68 0 48 3 53 31 69 19 11 37 34 46 58 l16 40 18
-40 c10 -23 32 -48 49 -58z m2766 -44 c9 -18 23 -37 32 -42 20 -11 -2 -26 -40
-26 l-28 0 0 -113 0 -113 -39 -38 c-36 -35 -39 -36 -44 -17 -3 13 -13 21 -26
21 -15 0 -22 -9 -27 -35 -3 -19 -4 -41 -1 -49 5 -13 -21 -46 -36 -46 -10 0 -9
188 1 194 5 3 16 -4 25 -15 24 -28 80 -26 95 4 6 12 13 78 14 145 3 116 4 125
27 143 13 10 25 19 27 19 2 0 11 -15 20 -32z m472 -284 l27 -23 -58 -1 c-35 0
-56 4 -52 10 3 5 -8 16 -25 25 -37 19 -31 35 13 35 18 0 39 5 47 10 11 7 16 4
18 -11 2 -12 16 -32 30 -45z m-3058 -373 c29 -25 32 -30 15 -31 -28 0 -38 8
-142 111 -56 56 -93 101 -93 113 0 15 23 -3 93 -71 50 -50 108 -105 127 -122z
m2330 29 c-39 -36 -74 -60 -88 -60 -19 0 -11 11 45 60 37 33 76 60 88 60 15
-1 5 -14 -45 -60z m285 -285 l0 -180 -1487 -3 -1488 -2 0 185 0 185 1488 -2
1487 -3 0 -180z m-3015 -68 c0 -151 0 -154 25 -177 14 -13 25 -27 25 -32 0 -4
-82 -8 -182 -8 l-183 0 93 93 92 92 -92 93 -93 92 158 0 157 0 0 -153z m3285
71 c-44 -45 -84 -86 -90 -90 -10 -7 1 -21 105 -127 l65 -66 -179 -3 c-98 -1
-181 0 -184 3 -3 3 7 18 21 33 27 28 27 29 27 173 0 80 3 149 7 152 3 4 74 7
157 7 l151 0 -80 -82z m-3175 -243 c0 -14 -1 -25 -3 -25 -2 0 -14 11 -27 25
l-23 25 26 0 c22 0 27 -5 27 -25z m2890 22 c0 -2 -13 -16 -30 -32 l-30 -29 0
32 c0 29 3 32 30 32 17 0 30 -1 30 -3z m-1400 -14 c-14 -2 -149 -27 -300 -54
-302 -54 -303 -54 -298 -37 7 20 429 96 533 96 50 -1 79 -3 65 -5z m304 -49
c133 -24 168 -36 154 -50 -4 -3 -90 9 -192 27 -101 19 -179 37 -173 41 20 13
63 9 211 -18z"/>
<path d="M4490 5115 c0 -8 7 -15 16 -15 14 0 14 3 4 15 -7 8 -14 15 -16 15 -2
0 -4 -7 -4 -15z"/>
<path d="M4900 4405 c0 -8 7 -15 16 -15 14 0 14 3 4 15 -7 8 -14 15 -16 15 -2
0 -4 -7 -4 -15z"/>
<path d="M5168 3193 c7 -3 16 -2 19 1 4 3 -2 6 -13 5 -11 0 -14 -3 -6 -6z"/>
<path d="M4901 2134 c0 -11 3 -14 6 -6 3 7 2 16 -1 19 -3 4 -6 -2 -5 -13z"/>
<path d="M1514 1447 c-3 -8 -4 -45 -2 -83 2 -56 6 -69 21 -72 14 -3 17 4 17
32 0 32 3 36 25 36 16 0 25 6 25 15 0 9 -9 15 -25 15 -37 0 -35 38 3 42 42 5
32 23 -16 26 -29 2 -44 -1 -48 -11z"/>
<path d="M1629 1420 c0 -22 -1 -59 -1 -82 -1 -32 3 -44 15 -46 15 -3 17 8 17
82 0 70 -3 86 -15 86 -11 0 -15 -11 -16 -40z"/>
<path d="M1690 1375 l0 -85 39 0 c58 0 91 30 91 85 0 55 -33 85 -91 85 l-39 0
0 -85z m78 43 c27 -27 9 -98 -25 -98 -9 0 -13 17 -13 55 0 56 12 69 38 43z"/>
<path d="M1844 1447 c-3 -8 -4 -45 -2 -83 l3 -69 48 -3 c37 -2 47 0 47 12 0
11 -10 16 -30 16 -41 0 -44 37 -3 42 36 4 41 26 6 30 -38 4 -44 35 -7 40 15 2
29 9 32 16 5 18 -87 17 -94 -1z"/>
<path d="M2032 1448 c-21 -21 -13 -56 18 -78 40 -28 39 -50 -1 -50 -41 0 -33
-24 10 -28 41 -4 61 12 61 50 0 22 -7 33 -30 46 -36 21 -39 42 -5 42 16 0 25
6 25 15 0 19 -60 21 -78 3z"/>
<path d="M2150 1375 c0 -69 3 -85 15 -85 10 0 15 10 15 28 0 21 8 30 33 42 24
11 33 23 35 45 4 36 -18 55 -65 55 l-33 0 0 -85z m58 33 c-2 -13 -7 -23 -13
-23 -5 0 -11 10 -13 23 -2 15 2 22 13 22 11 0 15 -7 13 -22z"/>
<path d="M2270 1375 l0 -85 45 0 c33 0 45 4 45 15 0 9 -9 15 -25 15 -24 0 -25
2 -25 70 0 63 -2 70 -20 70 -18 0 -20 -7 -20 -85z"/>
<path d="M2380 1374 l0 -85 48 3 c49 3 61 21 17 26 -35 5 -35 42 0 42 16 0 25
6 25 15 0 9 -9 15 -25 15 -18 0 -25 5 -25 20 0 15 7 20 25 20 16 0 25 6 25 15
0 11 -12 15 -45 15 l-45 0 0 -86z"/>
<path d="M2500 1374 c0 -76 2 -85 18 -82 13 3 17 13 15 46 -3 55 10 53 31 -3
14 -36 22 -45 42 -45 24 0 24 2 24 86 0 76 -2 85 -17 82 -13 -2 -19 -16 -23
-47 l-5 -44 -22 47 c-16 32 -29 46 -43 46 -18 0 -20 -6 -20 -86z"/>
<path d="M2654 1447 c-3 -8 -4 -45 -2 -83 l3 -69 40 -3 c57 -4 85 24 85 83 0
57 -27 85 -82 85 -23 0 -41 -5 -44 -13z m74 -29 c27 -27 9 -98 -25 -98 -9 0
-13 17 -13 55 0 56 12 69 38 43z"/>
<path d="M2810 1374 l0 -85 48 3 c52 3 62 20 16 28 -35 6 -39 32 -5 40 35 8
37 28 4 32 -17 2 -29 10 -31 21 -3 13 3 17 27 17 21 0 31 5 31 15 0 11 -12 15
-45 15 l-45 0 0 -86z"/>
<path d="M2915 1449 c-4 -6 2 -13 14 -16 19 -5 21 -13 21 -74 0 -62 2 -69 20
-69 18 0 20 7 20 69 0 61 2 69 21 74 36 10 10 27 -41 27 -27 0 -52 -5 -55 -11z"/>
<path d="M3104 1447 c-3 -8 -4 -45 -2 -83 l3 -69 48 -3 c37 -2 47 0 47 12 0
11 -10 16 -30 16 -41 0 -44 37 -3 42 36 4 41 26 6 30 -38 4 -44 35 -7 40 15 2
29 9 32 16 5 18 -87 17 -94 -1z"/>
<path d="M3215 1449 c-4 -6 2 -13 14 -16 19 -5 21 -13 21 -74 0 -62 2 -69 20
-69 18 0 20 7 20 70 0 56 3 70 15 70 8 0 15 7 15 15 0 11 -12 15 -49 15 -28 0
-53 -5 -56 -11z"/>
<path d="M3412 1448 c-21 -21 -13 -56 18 -80 17 -12 30 -28 30 -35 0 -8 -12
-13 -30 -13 -20 0 -30 -5 -30 -15 0 -25 77 -20 90 6 16 29 5 63 -25 79 -32 17
-32 40 0 40 16 0 25 6 25 15 0 19 -60 21 -78 3z"/>
<path d="M3542 1437 c-15 -16 -22 -36 -22 -65 0 -56 27 -84 77 -80 45 4 58 28
16 28 -37 0 -53 16 -53 55 0 39 16 55 53 55 41 0 29 24 -14 28 -26 2 -40 -3
-57 -21z"/>
<path d="M3660 1375 c0 -74 2 -86 16 -83 13 2 16 18 17 83 2 69 0 80 -15 83
-16 3 -18 -6 -18 -83z"/>
<path d="M3730 1375 l0 -85 45 0 c33 0 45 4 45 15 0 10 -10 15 -30 15 -41 0
-44 37 -3 42 36 4 41 26 6 30 -17 2 -29 10 -31 21 -3 13 3 17 27 17 21 0 31 5
31 15 0 11 -12 15 -45 15 l-45 0 0 -85z"/>
<path d="M3850 1376 c0 -68 3 -86 14 -86 11 0 16 14 18 48 l3 47 22 -47 c16
-34 28 -48 43 -48 19 0 20 6 20 85 0 69 -3 85 -15 85 -11 0 -15 -12 -15 -52 0
-57 -7 -56 -31 5 -11 28 -23 43 -38 45 -20 3 -21 -1 -21 -82z"/>
<path d="M3990 1445 c0 -8 9 -15 20 -15 18 0 20 -7 20 -70 0 -56 3 -70 15 -70
12 0 15 14 15 70 0 63 2 70 20 70 11 0 20 7 20 15 0 12 -13 15 -55 15 -42 0
-55 -3 -55 -15z"/>
<path d="M4120 1374 c0 -76 2 -85 18 -82 14 3 17 16 20 86 3 77 2 82 -18 82
-19 0 -20 -6 -20 -86z"/>
<path d="M4225 1450 c-6 -9 -55 -150 -55 -157 0 -2 8 -3 19 -3 10 0 21 9 24
20 3 13 14 20 30 20 17 0 28 -7 32 -20 4 -11 15 -20 27 -20 12 0 18 5 15 13
-2 6 -15 45 -28 85 -17 53 -28 72 -40 72 -10 0 -21 -5 -24 -10z m34 -82 c1 -5
-6 -8 -15 -8 -11 0 -14 5 -10 16 3 9 6 21 7 27 0 12 17 -20 18 -35z"/>
<path d="M1843 4833 c-17 -6 -19 -2250 -2 -2370 21 -151 113 -298 238 -382
116 -77 169 -90 391 -94 167 -3 178 -4 237 -31 74 -34 134 -94 170 -172 13
-30 28 -54 31 -54 4 0 16 23 26 52 24 69 112 158 181 182 38 14 98 20 245 26
107 4 213 13 235 20 119 36 252 142 313 252 18 31 41 92 52 135 20 76 20 111
18 1258 l-3 1180 -1060 2 c-583 1 -1066 -1 -1072 -4z m1670 -334 c10 -6 26 -7
37 -4 11 4 29 3 40 0 19 -6 17 -10 -21 -37 -44 -32 -45 -39 -23 -118 l8 -25
-35 26 c-19 14 -39 28 -45 32 -6 4 -30 -7 -53 -23 -22 -17 -43 -30 -45 -30 -2
0 2 21 10 47 19 62 20 59 -26 89 -43 29 -45 44 -5 37 51 -10 72 4 91 59 l17
53 16 -48 c9 -27 24 -53 34 -58z m-1140 40 l13 -44 54 -5 55 -5 -42 -29 c-24
-16 -43 -30 -43 -31 0 -1 7 -22 15 -45 8 -24 13 -45 11 -48 -3 -2 -20 8 -39
22 -19 14 -38 26 -42 26 -4 0 -23 -12 -42 -26 -19 -14 -36 -24 -39 -22 -2 3 3
24 11 48 8 24 14 44 13 45 -2 1 -21 15 -42 31 l-40 29 54 5 54 5 15 47 c8 27
16 46 18 44 2 -2 9 -23 16 -47z m34 -561 c27 -46 64 -109 82 -140 l32 -58
-160 0 c-89 0 -161 3 -161 7 0 9 150 273 155 273 2 0 25 -37 52 -82z m1138
-54 c42 -75 74 -138 72 -140 -2 -3 -75 -3 -161 -2 l-156 3 66 115 c78 135 93
160 98 160 2 0 39 -61 81 -136z m-1313 -226 c2 -35 7 -43 23 -43 16 0 21 8 23
43 3 37 6 42 28 42 20 0 24 -5 24 -32 0 -42 13 -63 34 -55 11 4 16 19 16 47 0
39 1 41 28 38 23 -3 28 -8 32 -43 7 -57 34 -55 38 3 3 40 5 43 30 40 l27 -3 3
-467 2 -468 -180 0 -180 0 0 470 0 470 24 0 c22 0 25 -5 28 -42z m406 -6 c3
-34 7 -43 20 -40 12 2 18 15 20 46 3 40 5 43 30 40 23 -3 28 -9 32 -43 7 -57
34 -55 38 3 3 39 5 42 32 42 27 0 29 -3 32 -42 2 -30 8 -43 18 -43 10 0 16 13
18 43 3 39 5 42 32 42 27 0 29 -3 32 -42 2 -30 8 -43 18 -43 10 0 16 13 18 43
3 39 5 42 32 42 27 0 29 -3 32 -42 2 -30 8 -43 18 -43 10 0 16 13 18 43 3 39
5 42 32 42 27 0 29 -3 32 -42 2 -30 8 -43 18 -43 10 0 16 13 18 43 3 39 5 42
33 42 l29 0 0 -470 0 -470 -80 0 -80 0 0 240 0 240 -42 22 c-57 29 -181 32
-250 4 l-48 -19 0 -243 0 -244 -80 0 -80 0 0 471 0 470 28 -3 c24 -3 27 -7 30
-46z m704 6 c2 -30 8 -43 18 -43 10 0 16 13 18 43 3 39 5 42 32 42 27 0 29 -3
32 -42 2 -31 8 -44 20 -46 13 -3 17 6 20 40 3 39 6 43 31 46 25 3 27 1 27 -37
0 -22 5 -43 10 -46 19 -12 40 16 40 51 0 30 3 34 25 34 l25 0 0 -470 0 -470
-180 0 -180 0 0 470 0 470 29 0 c28 0 30 -3 33 -42z m-402 -653 l0 -245 -30 0
-30 0 0 245 0 245 30 0 30 0 0 -245z m-100 -5 l0 -240 -30 0 -30 0 0 228 c0
228 0 229 23 240 12 6 25 11 30 11 4 1 7 -107 7 -239z m175 228 l25 -11 0
-229 0 -228 -30 0 -30 0 0 240 c0 132 2 240 5 240 2 0 16 -5 30 -12z m-847
-595 c-89 -91 -108 -118 -108 -151 0 -15 -9 -21 -34 -26 -21 -4 -55 -25 -85
-52 -28 -25 -51 -44 -51 -41 0 2 -5 28 -10 58 l-10 53 112 114 c62 63 122 118
133 122 11 5 47 9 80 9 l60 1 -87 -87z m433 30 l52 -51 -33 -7 c-23 -5 -63
-36 -130 -101 l-97 -94 -81 0 c-96 0 -125 -9 -174 -58 l-38 -36 0 82 c0 53 5
93 14 110 16 30 183 196 206 206 8 3 63 4 123 3 l107 -2 51 -52z m599 50 c0
-4 -34 -40 -75 -80 l-74 -73 -91 0 c-77 0 -95 3 -119 21 -16 12 -51 23 -77 26
-41 5 -57 13 -96 51 -27 26 -48 50 -48 54 0 4 131 8 290 8 160 0 290 -3 290
-7z m303 -7 c18 -8 117 -99 220 -204 l189 -189 -26 -51 c-14 -28 -31 -54 -37
-58 -6 -4 -49 31 -103 84 -100 100 -139 122 -219 122 -51 0 -55 2 -107 56 -78
79 -99 88 -210 94 l-95 5 73 70 c40 38 80 73 90 77 32 13 191 9 225 -6z m205
0 c15 -8 74 -62 131 -119 l104 -105 -6 -53 c-4 -28 -9 -54 -12 -57 -3 -4 -85
74 -183 171 l-177 177 58 0 c32 0 70 -6 85 -14z m-1778 -111 c-24 -25 -48 -45
-52 -45 -4 0 -8 20 -8 45 l0 45 52 0 52 0 -44 -45z m2010 0 c0 -25 -1 -45 -3
-45 -2 0 -23 20 -47 45 l-44 45 47 0 47 0 0 -45z m-1128 -42 c13 -11 -2 -30
-102 -128 l-116 -115 -55 0 c-32 0 -72 -8 -96 -20 l-43 -19 0 24 c0 46 22 81
98 159 111 112 120 118 218 114 46 -2 88 -8 96 -15z m496 -47 c40 -22 239
-227 251 -259 6 -16 11 -77 11 -136 0 -104 -1 -109 -22 -116 -13 -4 -113 -10
-223 -14 -182 -7 -204 -9 -245 -31 -69 -35 -109 -69 -145 -123 -29 -42 -34
-46 -39 -29 -12 35 -108 124 -163 149 -29 13 -81 27 -115 31 l-63 7 -3 80 c-5
135 -6 134 141 284 73 73 146 142 162 152 27 17 52 19 228 19 152 0 204 -3
225 -14z m-1248 -159 c0 -72 0 -73 -41 -112 l-40 -40 -25 30 c-13 16 -29 42
-35 58 -11 26 -9 31 27 69 34 35 83 66 107 68 4 0 7 -33 7 -73z m302 -49 l-4
-73 -96 -97 -96 -98 -35 21 c-50 30 -121 90 -121 103 0 13 175 188 205 204 11
6 49 12 85 12 l66 0 -4 -72z m1241 58 c18 -8 72 -55 122 -105 l89 -91 -38 -39
c-33 -33 -140 -101 -160 -101 -3 0 -6 49 -6 109 0 126 -5 145 -56 200 l-36 41
26 0 c15 0 41 -6 59 -14z m-1053 -93 c0 -3 -8 -15 -17 -26 -15 -15 -19 -42
-21 -139 l-4 -120 -111 5 c-62 3 -130 10 -151 17 l-39 12 114 115 c63 63 128
121 144 129 32 14 85 19 85 7z"/>
</g>
</svg>
